<mxfile host="app.diagrams.net" modified="2022-09-14T19:05:58.794Z" agent="5.0 (Windows NT 10.0; Win64; x64) AppleWebKit/537.36 (KHTML, like Gecko) Chrome/105.0.0.0 Safari/537.36 Edg/105.0.1343.27" etag="0DFsaCZSpRIXm-lbRn8D" version="20.3.0" type="github">
  <diagram id="C5RBs43oDa-KdzZeNtuy" name="Page-1">
    <mxGraphModel dx="1751" dy="1705" grid="1" gridSize="10" guides="1" tooltips="1" connect="1" arrows="1" fold="1" page="1" pageScale="1" pageWidth="827" pageHeight="1169" math="0" shadow="0">
      <root>
        <mxCell id="WIyWlLk6GJQsqaUBKTNV-0" />
        <mxCell id="WIyWlLk6GJQsqaUBKTNV-1" parent="WIyWlLk6GJQsqaUBKTNV-0" />
        <mxCell id="WIyWlLk6GJQsqaUBKTNV-2" value="" style="rounded=0;html=1;jettySize=auto;orthogonalLoop=1;fontSize=11;endArrow=block;endFill=0;endSize=8;strokeWidth=1;shadow=0;labelBackgroundColor=none;edgeStyle=orthogonalEdgeStyle;" parent="WIyWlLk6GJQsqaUBKTNV-1" edge="1">
          <mxGeometry relative="1" as="geometry">
            <mxPoint x="220" y="120" as="sourcePoint" />
            <mxPoint x="220" y="170" as="targetPoint" />
          </mxGeometry>
        </mxCell>
        <mxCell id="4YYKKNiLPFcmwB5PqRYF-10" value="" style="edgeStyle=orthogonalEdgeStyle;rounded=0;orthogonalLoop=1;jettySize=auto;html=1;" edge="1" parent="WIyWlLk6GJQsqaUBKTNV-1" source="WIyWlLk6GJQsqaUBKTNV-7" target="4YYKKNiLPFcmwB5PqRYF-4">
          <mxGeometry relative="1" as="geometry" />
        </mxCell>
        <mxCell id="WIyWlLk6GJQsqaUBKTNV-7" value="Cohere libraries" style="rounded=1;whiteSpace=wrap;html=1;fontSize=12;glass=0;strokeWidth=1;shadow=0;" parent="WIyWlLk6GJQsqaUBKTNV-1" vertex="1">
          <mxGeometry x="-20" y="200" width="120" height="50" as="geometry" />
        </mxCell>
        <mxCell id="4YYKKNiLPFcmwB5PqRYF-36" value="" style="edgeStyle=orthogonalEdgeStyle;rounded=0;orthogonalLoop=1;jettySize=auto;html=1;entryX=0;entryY=1;entryDx=0;entryDy=-15;entryPerimeter=0;" edge="1" parent="WIyWlLk6GJQsqaUBKTNV-1" source="WIyWlLk6GJQsqaUBKTNV-11" target="4YYKKNiLPFcmwB5PqRYF-26">
          <mxGeometry relative="1" as="geometry">
            <mxPoint x="330" y="200" as="targetPoint" />
          </mxGeometry>
        </mxCell>
        <mxCell id="WIyWlLk6GJQsqaUBKTNV-11" value="&amp;nbsp;data scored against a topic" style="rounded=1;whiteSpace=wrap;html=1;fontSize=12;glass=0;strokeWidth=1;shadow=0;" parent="WIyWlLk6GJQsqaUBKTNV-1" vertex="1">
          <mxGeometry x="162.5" y="320" width="120" height="40" as="geometry" />
        </mxCell>
        <mxCell id="4YYKKNiLPFcmwB5PqRYF-21" value="" style="edgeStyle=orthogonalEdgeStyle;rounded=0;orthogonalLoop=1;jettySize=auto;html=1;" edge="1" parent="WIyWlLk6GJQsqaUBKTNV-1" source="4YYKKNiLPFcmwB5PqRYF-0" target="4YYKKNiLPFcmwB5PqRYF-20">
          <mxGeometry relative="1" as="geometry" />
        </mxCell>
        <mxCell id="4YYKKNiLPFcmwB5PqRYF-0" value="Data is synced from&lt;br&gt;news artifacts" style="shape=parallelogram;perimeter=parallelogramPerimeter;whiteSpace=wrap;html=1;fixedSize=1;" vertex="1" parent="WIyWlLk6GJQsqaUBKTNV-1">
          <mxGeometry x="137.5" y="-30" width="170" height="40" as="geometry" />
        </mxCell>
        <mxCell id="4YYKKNiLPFcmwB5PqRYF-14" value="" style="edgeStyle=orthogonalEdgeStyle;rounded=0;orthogonalLoop=1;jettySize=auto;html=1;" edge="1" parent="WIyWlLk6GJQsqaUBKTNV-1" source="4YYKKNiLPFcmwB5PqRYF-4">
          <mxGeometry relative="1" as="geometry">
            <mxPoint x="225" y="320" as="targetPoint" />
          </mxGeometry>
        </mxCell>
        <mxCell id="4YYKKNiLPFcmwB5PqRYF-34" value="" style="edgeStyle=orthogonalEdgeStyle;rounded=0;orthogonalLoop=1;jettySize=auto;html=1;" edge="1" parent="WIyWlLk6GJQsqaUBKTNV-1" source="4YYKKNiLPFcmwB5PqRYF-4" target="4YYKKNiLPFcmwB5PqRYF-33">
          <mxGeometry relative="1" as="geometry" />
        </mxCell>
        <mxCell id="4YYKKNiLPFcmwB5PqRYF-4" value="Downstream classifier&lt;br&gt;- classification &lt;br&gt;-Topic Modelling" style="rounded=0;whiteSpace=wrap;html=1;" vertex="1" parent="WIyWlLk6GJQsqaUBKTNV-1">
          <mxGeometry x="165" y="170" width="120" height="110" as="geometry" />
        </mxCell>
        <mxCell id="4YYKKNiLPFcmwB5PqRYF-11" value="APIs" style="text;html=1;strokeColor=none;fillColor=none;align=center;verticalAlign=middle;whiteSpace=wrap;rounded=0;" vertex="1" parent="WIyWlLk6GJQsqaUBKTNV-1">
          <mxGeometry x="100" y="175" width="60" height="30" as="geometry" />
        </mxCell>
        <mxCell id="4YYKKNiLPFcmwB5PqRYF-28" value="" style="edgeStyle=orthogonalEdgeStyle;rounded=0;orthogonalLoop=1;jettySize=auto;html=1;" edge="1" parent="WIyWlLk6GJQsqaUBKTNV-1" source="4YYKKNiLPFcmwB5PqRYF-20" target="4YYKKNiLPFcmwB5PqRYF-26">
          <mxGeometry relative="1" as="geometry" />
        </mxCell>
        <mxCell id="4YYKKNiLPFcmwB5PqRYF-32" value="" style="edgeStyle=orthogonalEdgeStyle;rounded=0;orthogonalLoop=1;jettySize=auto;html=1;" edge="1" parent="WIyWlLk6GJQsqaUBKTNV-1" source="4YYKKNiLPFcmwB5PqRYF-20" target="4YYKKNiLPFcmwB5PqRYF-30">
          <mxGeometry relative="1" as="geometry" />
        </mxCell>
        <mxCell id="4YYKKNiLPFcmwB5PqRYF-20" value="Preprocess data" style="whiteSpace=wrap;html=1;" vertex="1" parent="WIyWlLk6GJQsqaUBKTNV-1">
          <mxGeometry x="170" y="50" width="105" height="70" as="geometry" />
        </mxCell>
        <mxCell id="4YYKKNiLPFcmwB5PqRYF-26" value="database" style="shape=cylinder3;whiteSpace=wrap;html=1;boundedLbl=1;backgroundOutline=1;size=15;" vertex="1" parent="WIyWlLk6GJQsqaUBKTNV-1">
          <mxGeometry x="340" y="100" width="60" height="80" as="geometry" />
        </mxCell>
        <mxCell id="4YYKKNiLPFcmwB5PqRYF-31" value="" style="edgeStyle=orthogonalEdgeStyle;rounded=0;orthogonalLoop=1;jettySize=auto;html=1;" edge="1" parent="WIyWlLk6GJQsqaUBKTNV-1" source="4YYKKNiLPFcmwB5PqRYF-30" target="4YYKKNiLPFcmwB5PqRYF-20">
          <mxGeometry relative="1" as="geometry" />
        </mxCell>
        <mxCell id="4YYKKNiLPFcmwB5PqRYF-30" value="DVC&amp;nbsp;" style="rounded=0;whiteSpace=wrap;html=1;" vertex="1" parent="WIyWlLk6GJQsqaUBKTNV-1">
          <mxGeometry x="354" width="120" height="60" as="geometry" />
        </mxCell>
        <mxCell id="4YYKKNiLPFcmwB5PqRYF-33" value="MLFlow" style="whiteSpace=wrap;html=1;rounded=0;" vertex="1" parent="WIyWlLk6GJQsqaUBKTNV-1">
          <mxGeometry x="365" y="195" width="120" height="60" as="geometry" />
        </mxCell>
      </root>
    </mxGraphModel>
  </diagram>
</mxfile>
